<svg xmlns="http://www.w3.org/2000/svg" xmlns:xlink="http://www.w3.org/1999/xlink" width="760" zoomAndPan="magnify" viewBox="0 0 570 494.999988" height="660" preserveAspectRatio="xMidYMid meet" version="1.0"><defs><g/><clipPath id="d091b8b03d"><path d="M 238 333 L 310 333 L 310 375.574219 L 238 375.574219 Z M 238 333 " clip-rule="nonzero"/></clipPath><clipPath id="7c0fb32a82"><path d="M 260.777344 78.101562 L 379.296875 78.101562 L 379.296875 277.347656 L 260.777344 277.347656 Z M 260.777344 78.101562 " clip-rule="nonzero"/></clipPath><clipPath id="d630274988"><path d="M 83.304688 0 L 486 0 L 486 402.75 L 83.304688 402.75 Z M 83.304688 0 " clip-rule="nonzero"/></clipPath><clipPath id="0b71ef47e8"><path d="M 24.863281 209.222656 L 544.613281 209.222656 L 544.613281 461.871094 L 24.863281 461.871094 Z M 24.863281 209.222656 " clip-rule="nonzero"/></clipPath></defs><path fill="#e75a32" d="M 239.429688 308.6875 C 239.730469 310.808594 240.3125 312.910156 240.925781 314.992188 C 240.03125 313.007812 239.296875 310.949219 238.777344 308.808594 C 238.648438 308.269531 238.554688 307.722656 238.480469 307.164062 C 238.417969 306.601562 238.433594 306.023438 238.46875 305.457031 C 238.574219 304.339844 238.773438 303.253906 239.007812 302.179688 C 239.496094 300.035156 240.09375 297.9375 240.761719 295.859375 C 241.441406 293.78125 242.128906 291.71875 242.914062 289.671875 L 243.148438 289.058594 L 243.804688 289.1875 L 249.46875 290.304688 L 255.121094 291.472656 L 256.039062 291.660156 L 255.699219 292.535156 C 254.917969 294.554688 254.152344 296.609375 253.484375 298.679688 C 252.816406 300.753906 252.171875 302.835938 251.707031 304.953125 C 251.210938 307.054688 251.015625 309.214844 251.007812 311.382812 C 251.046875 313.550781 251.328125 315.734375 252.027344 317.820312 C 251.046875 315.839844 250.59375 313.628906 250.339844 311.421875 C 250.121094 309.203125 250.226562 306.945312 250.589844 304.734375 C 250.980469 302.542969 251.496094 300.382812 252.125 298.257812 C 252.671875 296.4375 253.246094 294.628906 253.90625 292.839844 L 249.144531 291.902344 L 244.144531 290.867188 C 243.445312 292.667969 242.746094 294.484375 242.105469 296.308594 C 241.394531 298.347656 240.671875 300.386719 240.105469 302.453125 C 239.820312 303.488281 239.546875 304.523438 239.386719 305.5625 C 239.222656 306.578125 239.28125 307.621094 239.429688 308.6875 Z M 242.339844 332.402344 L 255.074219 335.453125 L 254.9375 326.707031 L 265.414062 328.59375 C 250.285156 316.515625 269.65625 275.484375 269.65625 275.484375 L 241.359375 268.628906 C 241.359375 268.628906 233.875 293.585938 231.207031 302.945312 C 227.867188 314.664062 242.230469 324.242188 242.230469 324.242188 L 242.339844 332.402344 " fill-opacity="1" fill-rule="nonzero"/><path fill="#e75a32" d="M 296.648438 309.703125 C 296.605469 308.90625 296.550781 308.117188 296.425781 307.332031 C 296.378906 306.941406 296.292969 306.554688 296.222656 306.164062 C 296.1875 305.96875 296.136719 305.777344 296.09375 305.585938 C 296.046875 305.394531 296.007812 305.199219 295.949219 305.011719 L 295.792969 304.445312 C 295.734375 304.253906 295.667969 304.066406 295.613281 303.878906 L 295.519531 303.597656 C 295.488281 303.503906 295.453125 303.414062 295.417969 303.320312 L 295.214844 302.769531 L 294.984375 302.226562 C 294.945312 302.136719 294.910156 302.046875 294.867188 301.957031 L 294.742188 301.691406 C 294.65625 301.515625 294.578125 301.335938 294.488281 301.160156 L 294.210938 300.640625 C 293.828125 299.957031 293.425781 299.285156 292.957031 298.660156 L 292.789062 298.421875 L 292.609375 298.191406 C 292.484375 298.039062 292.367188 297.882812 292.242188 297.734375 L 291.859375 297.292969 C 291.796875 297.21875 291.730469 297.148438 291.664062 297.078125 L 291.460938 296.863281 C 291.328125 296.722656 291.195312 296.582031 291.050781 296.453125 L 290.628906 296.046875 C 290.335938 295.792969 290.050781 295.53125 289.742188 295.296875 C 289.441406 295.050781 289.121094 294.835938 288.804688 294.609375 C 288.476562 294.402344 288.15625 294.1875 287.816406 294.003906 C 287.648438 293.910156 287.480469 293.8125 287.308594 293.730469 C 287.136719 293.644531 286.964844 293.554688 286.789062 293.472656 L 286.257812 293.246094 L 286.128906 293.1875 L 285.992188 293.136719 L 285.453125 292.933594 C 285.359375 292.902344 285.269531 292.875 285.175781 292.847656 C 284.992188 292.792969 284.8125 292.726562 284.625 292.675781 L 284.070312 292.535156 C 283.976562 292.511719 283.878906 292.492188 283.789062 292.472656 L 283.503906 292.417969 L 283.222656 292.363281 L 282.9375 292.324219 C 282.746094 292.300781 282.558594 292.265625 282.367188 292.25 L 281.792969 292.203125 C 281.699219 292.195312 281.601562 292.195312 281.507812 292.191406 L 281.21875 292.1875 L 280.933594 292.179688 C 280.835938 292.175781 280.742188 292.1875 280.644531 292.1875 C 280.453125 292.195312 280.261719 292.199219 280.070312 292.210938 C 279.691406 292.25 279.308594 292.277344 278.929688 292.34375 C 278.742188 292.371094 278.550781 292.398438 278.367188 292.445312 L 277.804688 292.5625 C 277.4375 292.660156 277.0625 292.75 276.703125 292.878906 L 276.429688 292.96875 C 276.339844 293 276.253906 293.035156 276.164062 293.070312 C 275.984375 293.140625 275.804688 293.207031 275.628906 293.28125 L 275.105469 293.519531 C 275.019531 293.554688 274.933594 293.601562 274.847656 293.644531 L 274.339844 293.910156 C 274.253906 293.957031 274.171875 294.007812 274.089844 294.054688 C 273.925781 294.152344 273.757812 294.246094 273.597656 294.351562 L 273.117188 294.667969 C 272.957031 294.769531 272.804688 294.894531 272.652344 295.003906 L 272.417969 295.175781 L 272.195312 295.355469 C 272.050781 295.480469 271.894531 295.597656 271.753906 295.722656 L 271.324219 296.109375 C 271.179688 296.238281 271.050781 296.378906 270.910156 296.511719 L 270.707031 296.714844 C 270.640625 296.785156 270.574219 296.855469 270.511719 296.925781 C 270.382812 297.066406 270.246094 297.207031 270.121094 297.351562 C 269.875 297.648438 269.621094 297.9375 269.394531 298.25 C 269.15625 298.550781 268.941406 298.875 268.722656 299.1875 L 268.414062 299.679688 C 268.363281 299.761719 268.3125 299.839844 268.261719 299.925781 L 268.121094 300.175781 C 267.730469 300.84375 267.402344 301.546875 267.101562 302.257812 L 266.886719 302.792969 C 266.816406 302.976562 266.757812 303.160156 266.695312 303.339844 C 266.5625 303.703125 266.457031 304.078125 266.34375 304.449219 C 265.507812 307.429688 265.382812 310.613281 265.945312 313.671875 C 266.234375 315.203125 266.703125 316.699219 267.347656 318.117188 C 267.980469 319.542969 268.8125 320.878906 269.796875 322.097656 C 270.78125 323.3125 271.945312 324.386719 273.238281 325.285156 C 273.886719 325.726562 274.574219 326.121094 275.289062 326.457031 C 276 326.800781 276.742188 327.085938 277.507812 327.308594 C 276.730469 327.136719 275.964844 326.90625 275.222656 326.609375 C 274.480469 326.3125 273.765625 325.949219 273.074219 325.535156 C 272.390625 325.117188 271.738281 324.644531 271.125 324.125 C 270.507812 323.605469 269.925781 323.046875 269.390625 322.441406 C 268.328125 321.230469 267.417969 319.875 266.703125 318.421875 C 266.34375 317.699219 266.027344 316.949219 265.769531 316.179688 C 265.507812 315.414062 265.28125 314.632812 265.117188 313.839844 C 264.949219 313.046875 264.824219 312.242188 264.746094 311.433594 C 264.722656 311.230469 264.714844 311.03125 264.699219 310.828125 L 264.683594 310.523438 L 264.671875 310.21875 C 264.667969 310.015625 264.660156 309.8125 264.660156 309.609375 L 264.667969 309 C 264.667969 308.796875 264.683594 308.59375 264.695312 308.390625 C 264.707031 308.1875 264.71875 307.984375 264.730469 307.78125 L 264.792969 307.175781 L 264.824219 306.871094 L 264.871094 306.570312 L 264.960938 305.964844 L 265.078125 305.367188 L 265.136719 305.066406 L 265.207031 304.769531 C 265.253906 304.574219 265.300781 304.375 265.351562 304.175781 C 266.199219 301.03125 267.828125 298.074219 270.144531 295.742188 L 270.363281 295.527344 C 270.4375 295.453125 270.507812 295.382812 270.585938 295.316406 L 271.046875 294.90625 C 271.199219 294.769531 271.363281 294.644531 271.519531 294.515625 L 271.761719 294.320312 L 272.011719 294.140625 C 272.179688 294.019531 272.339844 293.894531 272.511719 293.78125 L 273.027344 293.445312 C 273.199219 293.335938 273.382812 293.234375 273.558594 293.128906 C 273.648438 293.078125 273.734375 293.027344 273.824219 292.976562 L 274.375 292.695312 C 274.46875 292.644531 274.558594 292.601562 274.652344 292.558594 L 275.21875 292.308594 C 275.40625 292.230469 275.601562 292.15625 275.792969 292.085938 C 275.890625 292.046875 275.984375 292.007812 276.082031 291.976562 L 276.375 291.882812 C 276.765625 291.746094 277.167969 291.648438 277.5625 291.546875 C 277.96875 291.460938 278.371094 291.371094 278.78125 291.324219 C 279.1875 291.257812 279.601562 291.234375 280.011719 291.203125 C 280.214844 291.191406 280.421875 291.191406 280.625 291.1875 C 280.730469 291.1875 280.832031 291.179688 280.933594 291.183594 L 281.242188 291.195312 L 281.554688 291.207031 C 281.65625 291.210938 281.757812 291.210938 281.859375 291.226562 L 282.472656 291.28125 C 282.679688 291.304688 282.878906 291.339844 283.085938 291.371094 L 283.386719 291.421875 L 283.691406 291.484375 L 283.992188 291.546875 C 284.09375 291.566406 284.191406 291.589844 284.289062 291.617188 L 284.882812 291.78125 C 285.082031 291.835938 285.273438 291.90625 285.472656 291.972656 C 285.566406 292.003906 285.667969 292.03125 285.761719 292.070312 L 286.046875 292.183594 L 286.332031 292.300781 L 286.472656 292.355469 L 287.171875 292.679688 C 287.351562 292.773438 287.53125 292.871094 287.714844 292.964844 C 287.894531 293.058594 288.070312 293.167969 288.246094 293.273438 C 288.601562 293.476562 288.933594 293.710938 289.269531 293.9375 C 289.597656 294.183594 289.929688 294.421875 290.234375 294.6875 C 290.554688 294.941406 290.847656 295.222656 291.144531 295.5 C 291.289062 295.640625 291.433594 295.789062 291.574219 295.933594 C 291.71875 296.078125 291.851562 296.230469 291.984375 296.382812 L 292.1875 296.609375 C 292.253906 296.683594 292.324219 296.761719 292.382812 296.84375 L 292.765625 297.316406 C 292.890625 297.472656 293.003906 297.640625 293.125 297.804688 L 293.304688 298.046875 L 293.46875 298.300781 C 293.929688 298.96875 294.324219 299.675781 294.683594 300.394531 C 296.117188 303.289062 296.757812 306.527344 296.648438 309.703125 Z M 285.980469 320.433594 C 285.980469 320.433594 277.914062 324.425781 274.164062 316.1875 C 270.746094 308.679688 273.902344 302.039062 278.472656 300.789062 Z M 288 319.453125 L 280.648438 299.535156 C 280.648438 299.535156 288.78125 296.683594 291.859375 305.195312 C 295.125 314.230469 288 319.453125 288 319.453125 Z M 290.550781 278.640625 C 280.347656 277.894531 270.972656 276.03125 270.972656 276.03125 C 270.972656 276.03125 265.222656 289.050781 262.257812 302.039062 C 259.511719 314.042969 260.578125 326.199219 269.222656 329.792969 C 269.226562 329.792969 269.226562 329.796875 269.230469 329.796875 C 262.144531 329.433594 255.835938 327.726562 255.835938 327.726562 L 256.054688 335.742188 L 300.171875 337.667969 L 293.335938 318.464844 C 305.9375 302.976562 315.082031 278.421875 315.082031 278.421875 C 315.082031 278.421875 301.53125 279.445312 290.550781 278.640625 " fill-opacity="1" fill-rule="nonzero"/><g clip-path="url(#d091b8b03d)"><path fill="#e75a32" d="M 255.074219 338.082031 L 238.570312 333.90625 L 240.25 375.589844 L 309.460938 375.621094 L 302.089844 339.152344 L 255.074219 338.082031 " fill-opacity="1" fill-rule="nonzero"/></g><path fill="#e75a32" d="M 259.726562 265.480469 C 259.726562 265.480469 243.496094 256.472656 239.484375 253.074219 C 225.234375 241 224.730469 235.554688 225.234375 220.210938 C 225.289062 218.515625 227.382812 216.195312 229.042969 216.558594 C 231.21875 217.035156 232.894531 218.761719 232.464844 224.660156 C 231.496094 237.894531 236.351562 245.089844 241.605469 250.460938 C 248.949219 257.972656 263.804688 265.480469 263.804688 265.480469 Z M 251.695312 266.296875 C 251.695312 266.296875 231.742188 253.863281 227.730469 250.460938 C 213.480469 238.390625 212.519531 231.09375 213.695312 217.601562 C 213.84375 215.910156 215.628906 213.585938 217.289062 213.945312 C 219.464844 214.421875 219.808594 215.667969 219.378906 221.570312 C 218.40625 234.800781 221.527344 241.460938 228.738281 248.828125 C 236.082031 256.339844 252.75 266.015625 252.75 266.015625 Z M 243.765625 265.5 C 243.765625 265.5 223.816406 253.066406 219.800781 249.664062 C 205.550781 237.59375 204.566406 230.585938 205.742188 217.089844 C 205.890625 215.398438 207.15625 212.152344 208.929688 213.097656 C 209.800781 213.5625 209.796875 216.222656 209.363281 222.121094 C 208.394531 235.355469 213.597656 240.664062 220.808594 248.03125 C 228.152344 255.539062 244.824219 265.21875 244.824219 265.21875 Z M 206.101562 193.136719 C 207.035156 192.203125 213.046875 191.542969 223.011719 192.460938 C 222.273438 195.585938 221.632812 198.371094 221.097656 200.734375 C 210.296875 199.371094 204.46875 199.664062 204.46875 199.664062 C 206.917969 196.398438 205.050781 194.1875 206.101562 193.136719 Z M 201.027344 217.089844 C 201.175781 215.398438 201.457031 213.910156 202.546875 214.285156 C 203.09375 214.476562 202.65625 217.316406 202.253906 223.21875 C 201.773438 230.332031 204.070312 235.90625 204.070312 235.90625 C 204.070312 235.90625 199.851562 230.585938 201.027344 217.089844 Z M 210.179688 178.460938 C 211.097656 177.539062 216.933594 176.882812 226.625 177.738281 C 225.890625 180.625 225.203125 183.382812 224.570312 185.980469 C 214.160156 184.707031 208.546875 184.984375 208.546875 184.984375 C 210.992188 181.71875 209.128906 179.507812 210.179688 178.460938 Z M 215.070312 163.78125 C 215.957031 162.894531 221.425781 162.253906 230.511719 162.976562 C 229.746094 165.773438 229.015625 168.507812 228.320312 171.164062 C 218.640625 170.046875 213.441406 170.304688 213.441406 170.304688 C 215.886719 167.042969 214.023438 164.832031 215.070312 163.78125 Z M 219.964844 149.101562 C 220.828125 148.238281 226.027344 147.605469 234.6875 148.242188 C 233.878906 150.984375 233.09375 153.707031 232.335938 156.386719 C 223.226562 155.382812 218.332031 155.625 218.332031 155.625 C 220.777344 152.363281 218.914062 150.152344 219.964844 149.101562 Z M 224.042969 135.238281 C 224.910156 134.371094 230.175781 133.734375 238.9375 134.390625 C 238.066406 137.101562 237.222656 139.820312 236.398438 142.523438 C 227.296875 141.519531 222.410156 141.761719 222.410156 141.761719 C 224.859375 138.5 222.992188 136.289062 224.042969 135.238281 Z M 228.117188 119.746094 C 229.023438 118.839844 234.703125 118.1875 244.132812 118.988281 C 243.175781 121.671875 242.234375 124.390625 241.316406 127.121094 C 231.667969 126.007812 226.488281 126.269531 226.488281 126.269531 C 228.933594 123.003906 227.070312 120.792969 228.117188 119.746094 Z M 232.195312 105.066406 C 233.148438 104.117188 239.367188 103.445312 249.671875 104.441406 C 248.589844 107.09375 247.527344 109.808594 246.488281 112.574219 C 236.140625 111.316406 230.566406 111.589844 230.566406 111.589844 C 233.011719 108.328125 231.148438 106.113281 232.195312 105.066406 Z M 238.722656 90.386719 C 239.703125 89.402344 245.722656 88.722656 256.183594 89.867188 C 254.910156 92.445312 253.652344 95.148438 252.421875 97.949219 C 242.25 96.625 237.089844 96.910156 237.089844 96.910156 C 239.535156 93.648438 237.671875 91.4375 238.722656 90.386719 Z M 248.402344 77.054688 C 252.417969 70.71875 257.195312 70.222656 257.195312 70.222656 C 257.195312 70.222656 253.730469 72.894531 251.472656 76.808594 C 250.378906 78.707031 248.03125 84.382812 246.148438 83.265625 C 244.726562 82.421875 247.519531 78.449219 248.402344 77.054688 Z M 269.621094 66.785156 C 269.621094 66.785156 265.332031 70.097656 262.535156 74.9375 C 261.179688 77.289062 258.277344 84.3125 255.945312 82.925781 C 254.1875 81.882812 257.644531 76.96875 258.738281 75.242188 C 263.707031 67.402344 269.621094 66.785156 269.621094 66.785156 Z M 285.726562 66.785156 C 285.726562 66.785156 279.777344 70.957031 276.875 75.34375 C 275.085938 78.050781 270.761719 84.886719 266.917969 83.523438 C 265.179688 82.910156 269.65625 76.675781 271 74.621094 C 276.113281 66.785156 285.726562 66.785156 285.726562 66.785156 Z M 290.007812 72.40625 C 300.890625 68.597656 307.53125 72.949219 307.53125 72.949219 C 307.53125 72.949219 302.742188 73.714844 300.128906 75.242188 C 298.007812 76.488281 295.265625 77.273438 292.292969 81.113281 C 289.679688 84.488281 283.164062 86.917969 281.671875 84.160156 C 280.003906 81.078125 286.449219 73.652344 290.007812 72.40625 Z M 325.566406 110.324219 C 326.789062 111.054688 328.304688 113.59375 327.542969 115.488281 C 326.453125 118.207031 325.257812 119.734375 320.796875 117.667969 C 310.324219 112.816406 291.859375 106.5625 280.417969 103.574219 C 270.941406 101.101562 263.003906 99.539062 256.609375 98.550781 C 257.875 95.71875 259.160156 92.992188 260.464844 90.410156 C 266.621094 91.285156 274 92.730469 282.53125 94.976562 C 295.308594 98.347656 319.035156 106.40625 325.566406 110.324219 Z M 322.648438 130.171875 C 321.5625 132.886719 320.363281 134.414062 315.902344 132.347656 C 305.433594 127.492188 286.964844 121.242188 275.527344 118.253906 C 265.730469 115.695312 257.378906 114.109375 250.625 113.125 C 251.691406 110.328125 252.777344 107.585938 253.878906 104.914062 C 260.527344 105.765625 268.523438 107.253906 277.636719 109.65625 C 290.414062 113.023438 314.144531 121.085938 320.671875 125.003906 C 321.894531 125.738281 323.410156 128.273438 322.648438 130.171875 Z M 318.574219 144.847656 C 317.484375 147.566406 316.289062 149.09375 311.824219 147.023438 C 301.355469 142.171875 282.890625 135.917969 271.449219 132.933594 C 261.101562 130.230469 252.375 128.617188 245.433594 127.648438 C 246.367188 124.878906 247.328125 122.125 248.304688 119.410156 C 255.238281 120.226562 263.75 121.75 273.5625 124.335938 C 286.335938 127.703125 310.066406 135.761719 316.59375 139.679688 C 317.816406 140.414062 319.332031 142.949219 318.574219 144.847656 Z M 314.496094 160.339844 C 313.40625 163.058594 312.210938 164.585938 307.746094 162.519531 C 297.277344 157.667969 278.8125 151.414062 267.371094 148.425781 C 256.597656 145.617188 247.570312 143.976562 240.5 143.023438 C 241.335938 140.28125 242.199219 137.527344 243.085938 134.777344 C 250.214844 135.554688 259.125 137.097656 269.484375 139.828125 C 282.257812 143.199219 305.988281 151.257812 312.519531 155.175781 C 313.738281 155.910156 315.257812 158.445312 314.496094 160.339844 Z M 310.417969 174.207031 C 309.328125 176.925781 308.132812 178.449219 303.667969 176.382812 C 293.199219 171.53125 274.734375 165.277344 263.292969 162.289062 C 252.523438 159.480469 243.5 157.839844 236.425781 156.886719 C 237.195312 154.164062 237.992188 151.402344 238.816406 148.621094 C 245.980469 149.390625 254.953125 150.9375 265.40625 153.691406 C 278.179688 157.0625 301.910156 165.121094 308.441406 169.039062 C 309.664062 169.769531 311.179688 172.308594 310.417969 174.207031 Z M 305.527344 188.882812 C 304.4375 191.601562 303.238281 193.128906 298.777344 191.058594 C 288.308594 186.210938 269.839844 179.953125 258.402344 176.96875 C 248.058594 174.269531 239.332031 172.652344 232.394531 171.6875 C 233.101562 168.988281 233.84375 166.210938 234.621094 163.371094 C 241.664062 164.167969 250.402344 165.707031 260.515625 168.371094 C 273.289062 171.738281 297.015625 179.800781 303.546875 183.71875 C 304.769531 184.449219 306.285156 186.984375 305.527344 188.882812 Z M 300.632812 203.5625 C 299.542969 206.28125 298.347656 207.804688 293.882812 205.738281 C 283.414062 200.886719 264.949219 194.636719 253.507812 191.648438 C 243.722656 189.09375 235.378906 187.507812 228.632812 186.523438 C 229.277344 183.886719 229.972656 181.09375 230.71875 178.167969 C 237.585938 178.992188 245.972656 180.503906 255.621094 183.050781 C 268.394531 186.417969 292.125 194.476562 298.65625 198.394531 C 299.875 199.128906 301.394531 201.664062 300.632812 203.5625 Z M 296.554688 218.242188 C 295.464844 220.957031 294.269531 222.488281 289.808594 220.417969 C 279.335938 215.566406 260.871094 209.3125 249.429688 206.324219 C 239.929688 203.84375 231.792969 202.28125 225.152344 201.292969 C 225.695312 198.886719 226.34375 196.070312 227.09375 192.902344 C 233.878906 193.738281 242.109375 195.242188 251.542969 197.730469 C 264.316406 201.097656 288.046875 209.15625 294.578125 213.074219 C 295.800781 213.808594 297.316406 216.34375 296.554688 218.242188 Z M 269.441406 264.175781 C 269.441406 264.175781 257.636719 256.621094 253.359375 253.5625 C 243.074219 246.21875 238.164062 237.238281 238.667969 221.894531 C 238.722656 220.199219 240.960938 218.171875 243.726562 218.792969 C 246.46875 219.410156 247.605469 222.382812 247.769531 225.648438 C 248.144531 233.164062 248.542969 240.8125 255.300781 248.1875 C 262.398438 255.929688 272.707031 262.800781 272.707031 262.800781 Z M 274.601562 270.273438 C 274.875 270.183594 275.148438 270.082031 275.417969 269.984375 L 275.828125 269.839844 C 275.964844 269.792969 276.097656 269.734375 276.230469 269.683594 L 277.035156 269.363281 C 277.300781 269.253906 277.5625 269.132812 277.828125 269.019531 C 278.359375 268.792969 278.871094 268.527344 279.390625 268.273438 C 279.519531 268.210938 279.648438 268.144531 279.773438 268.074219 L 280.53125 267.660156 L 280.722656 267.558594 L 280.90625 267.445312 C 282.894531 266.277344 284.757812 264.90625 286.445312 263.339844 C 288.128906 261.773438 289.644531 260.027344 290.984375 258.160156 C 292.324219 256.289062 293.484375 254.292969 294.488281 252.222656 C 294.613281 251.964844 294.746094 251.707031 294.867188 251.445312 L 295.21875 250.65625 L 295.566406 249.867188 C 295.679688 249.601562 295.78125 249.332031 295.890625 249.066406 C 296.328125 248.003906 296.71875 246.90625 297.125 245.820312 L 299.550781 239.296875 C 299.753906 238.753906 299.945312 238.203125 300.140625 237.660156 L 301.894531 232.742188 L 303.066406 229.464844 L 304.203125 226.175781 L 306.476562 219.59375 L 308.683594 212.992188 L 309.789062 209.691406 C 310.15625 208.589844 310.507812 207.484375 310.867188 206.382812 L 313.019531 199.761719 C 313.203125 199.210938 313.378906 198.660156 313.550781 198.105469 L 314.074219 196.445312 L 315.117188 193.125 C 315.8125 190.910156 316.519531 188.699219 317.191406 186.476562 L 319.234375 179.824219 C 319.402344 179.269531 319.578125 178.714844 319.742188 178.160156 L 320.238281 176.492188 L 322.222656 169.816406 L 322.71875 168.148438 L 323.203125 166.476562 L 325.132812 159.789062 C 327.671875 150.859375 330.148438 141.914062 332.445312 132.921875 L 332.882812 131.234375 C 333.03125 130.675781 333.175781 130.113281 333.3125 129.550781 L 334.148438 126.171875 C 334.699219 123.917969 335.269531 121.667969 335.78125 119.40625 L 336.574219 116.015625 L 336.96875 114.324219 C 337.101562 113.757812 337.214844 113.1875 337.339844 112.621094 L 338.070312 109.21875 C 338.308594 108.085938 338.570312 106.953125 338.777344 105.8125 L 339.4375 102.398438 L 339.769531 100.691406 C 339.871094 100.121094 339.957031 99.546875 340.054688 98.976562 C 340.441406 96.691406 340.707031 94.390625 340.910156 92.082031 L 341.035156 90.351562 L 341.105469 88.613281 C 341.121094 88.324219 341.117188 88.035156 341.121094 87.742188 L 341.125 86.875 C 341.125 86.730469 341.128906 86.585938 341.125 86.441406 L 341.109375 86.003906 L 341.085938 85.136719 C 341.082031 84.847656 341.058594 84.558594 341.042969 84.269531 L 340.984375 83.402344 L 340.898438 82.539062 C 340.882812 82.394531 340.875 82.25 340.855469 82.105469 L 340.792969 81.675781 C 340.753906 81.390625 340.71875 81.101562 340.664062 80.816406 C 340.609375 80.53125 340.566406 80.242188 340.5 79.960938 L 340.410156 79.535156 L 340.300781 79.117188 C 340.226562 78.835938 340.144531 78.558594 340.039062 78.285156 C 333.707031 74.644531 327.175781 71.730469 320.871094 69.542969 C 285.039062 57.09375 256.546875 56.808594 241.199219 78.03125 C 229.699219 93.941406 221.945312 120.695312 213.121094 151.175781 C 203.601562 184.039062 190.296875 218.683594 202.671875 238.683594 C 214.070312 257.109375 238.003906 267.207031 260.917969 272.390625 C 263.238281 272.351562 265.558594 272.195312 267.847656 271.851562 C 270.140625 271.519531 272.40625 270.992188 274.601562 270.273438 " fill-opacity="1" fill-rule="nonzero"/><g clip-path="url(#7c0fb32a82)"><path fill="#e75a32" d="M 373.410156 144.996094 C 373.042969 145.496094 372.902344 146.449219 372.902344 146.449219 C 372.902344 146.449219 354.128906 134.140625 346.203125 129.90625 C 344.296875 128.890625 343.296875 125.917969 344.609375 123.628906 C 346.179688 120.875 348.417969 121.851562 349.503906 122.484375 C 356.234375 126.410156 373.335938 135.636719 374.96875 140.441406 C 375.371094 141.613281 374.640625 143.328125 373.410156 144.996094 Z M 369.707031 159.472656 C 369.34375 159.96875 369.199219 160.921875 369.199219 160.921875 C 369.199219 160.921875 350.429688 148.613281 342.5 144.382812 C 340.597656 143.363281 339.597656 140.390625 340.910156 138.101562 C 342.480469 135.347656 344.71875 136.324219 345.804688 136.957031 C 352.53125 140.886719 369.636719 150.113281 371.269531 154.914062 C 371.667969 156.089844 370.941406 157.800781 369.707031 159.472656 Z M 365.796875 173.800781 C 365.433594 174.300781 365.300781 175.257812 365.300781 175.257812 C 365.300781 175.257812 346.402344 163.144531 338.429688 158.996094 C 336.519531 157.996094 335.488281 155.035156 336.773438 152.734375 C 338.316406 149.964844 340.566406 150.914062 341.65625 151.539062 C 348.425781 155.394531 365.625 164.441406 367.308594 169.230469 C 367.71875 170.398438 367.011719 172.121094 365.796875 173.800781 Z M 362.191406 188 C 361.839844 188.511719 361.726562 189.464844 361.726562 189.464844 C 361.726562 189.464844 342.597656 177.726562 334.546875 173.730469 C 332.613281 172.773438 331.523438 169.828125 332.765625 167.5 C 334.257812 164.703125 336.523438 165.613281 337.625 166.210938 C 344.46875 169.9375 361.839844 178.648438 363.617188 183.402344 C 364.050781 184.5625 363.375 186.296875 362.191406 188 Z M 357.886719 201.777344 C 357.546875 202.296875 357.460938 203.257812 357.460938 203.257812 C 357.460938 203.257812 338.03125 192.011719 329.878906 188.230469 C 327.925781 187.320312 326.761719 184.40625 327.941406 182.046875 C 329.355469 179.214844 331.648438 180.0625 332.765625 180.632812 C 339.703125 184.179688 357.292969 192.4375 359.191406 197.140625 C 359.65625 198.292969 359.023438 200.042969 357.886719 201.777344 Z M 353.910156 215.121094 C 353.574219 215.605469 353.484375 216.511719 353.484375 216.511719 C 353.484375 216.511719 334.222656 205.984375 326.136719 202.445312 C 324.199219 201.597656 323.050781 198.855469 324.230469 196.632812 C 325.644531 193.957031 327.914062 194.75 329.027344 195.285156 C 335.902344 198.605469 353.347656 206.328125 355.222656 210.75 C 355.679688 211.832031 355.046875 213.480469 353.910156 215.121094 Z M 349.449219 229.703125 C 349.109375 230.191406 349.023438 231.09375 349.023438 231.09375 C 349.023438 231.09375 329.761719 220.566406 321.675781 217.027344 C 319.738281 216.179688 318.589844 213.4375 319.769531 211.214844 C 321.183594 208.542969 323.453125 209.335938 324.5625 209.871094 C 331.441406 213.1875 348.886719 220.910156 350.757812 225.335938 C 351.21875 226.414062 350.585938 228.066406 349.449219 229.703125 Z M 346.199219 243.921875 C 345.863281 244.40625 345.792969 245.296875 345.792969 245.296875 C 345.792969 245.296875 325.917969 235.484375 317.597656 232.226562 C 315.601562 231.445312 314.375 228.789062 315.527344 226.582031 C 316.917969 223.925781 319.25 224.640625 320.394531 225.136719 C 327.480469 228.207031 345.441406 235.320312 347.445312 239.605469 C 347.933594 240.652344 347.320312 242.289062 346.199219 243.921875 Z M 378.015625 123.09375 C 372.28125 102.847656 356.882812 87.976562 340.039062 78.285156 C 340.148438 78.554688 340.242188 78.832031 340.324219 79.109375 L 340.441406 79.527344 L 340.542969 79.953125 C 340.617188 80.234375 340.667969 80.519531 340.730469 80.804688 C 340.792969 81.085938 340.835938 81.375 340.882812 81.660156 L 340.953125 82.09375 C 340.976562 82.234375 340.992188 82.378906 341.011719 82.523438 L 341.121094 83.390625 L 341.199219 84.257812 C 341.222656 84.550781 341.253906 84.839844 341.265625 85.128906 L 341.308594 86 L 341.332031 86.433594 C 341.339844 86.582031 341.339844 86.726562 341.34375 86.871094 L 341.355469 87.742188 C 341.363281 88.035156 341.367188 88.328125 341.359375 88.617188 L 341.328125 90.363281 L 341.238281 92.105469 C 341.089844 94.425781 340.855469 96.746094 340.507812 99.046875 C 340.421875 99.621094 340.34375 100.199219 340.253906 100.773438 L 339.953125 102.488281 L 339.351562 105.921875 C 337.652344 115.0625 335.566406 124.125 333.347656 133.148438 C 332.785156 135.402344 332.230469 137.65625 331.660156 139.910156 L 329.890625 146.652344 C 329.308594 148.898438 328.683594 151.136719 328.070312 153.378906 L 327.152344 156.738281 L 326.691406 158.417969 L 326.21875 160.09375 L 324.3125 166.796875 L 323.832031 168.472656 L 323.339844 170.144531 L 322.351562 173.484375 L 321.363281 176.828125 L 320.871094 178.5 C 320.707031 179.054688 320.535156 179.609375 320.363281 180.164062 L 318.332031 186.832031 C 317.660156 189.054688 316.945312 191.265625 316.246094 193.480469 L 314.667969 198.460938 C 314.492188 199.015625 314.316406 199.570312 314.132812 200.121094 L 311.96875 206.742188 C 311.601562 207.847656 311.25 208.953125 310.878906 210.054688 L 309.757812 213.351562 L 307.511719 219.949219 L 305.195312 226.523438 L 304.035156 229.808594 L 302.835938 233.082031 L 301.632812 236.351562 L 301.035156 237.988281 C 300.832031 238.53125 300.636719 239.078125 300.425781 239.621094 L 297.933594 246.128906 C 297.515625 247.214844 297.117188 248.300781 296.65625 249.382812 C 296.546875 249.648438 296.4375 249.921875 296.320312 250.191406 L 295.585938 251.785156 C 295.460938 252.050781 295.324219 252.308594 295.195312 252.570312 C 294.140625 254.660156 292.929688 256.675781 291.539062 258.5625 C 290.148438 260.449219 288.582031 262.207031 286.839844 263.777344 C 285.097656 265.339844 283.175781 266.699219 281.136719 267.847656 L 280.945312 267.957031 L 280.753906 268.058594 L 280.363281 268.261719 L 279.976562 268.464844 C 279.847656 268.53125 279.71875 268.601562 279.585938 268.660156 C 279.054688 268.90625 278.53125 269.167969 277.988281 269.386719 C 276.917969 269.855469 275.8125 270.234375 274.703125 270.589844 C 272.46875 271.261719 270.183594 271.75 267.871094 272.027344 C 265.566406 272.316406 263.238281 272.414062 260.917969 272.390625 C 276.800781 275.984375 292.195312 277.210938 302.585938 277.210938 C 353.523438 277.210938 348.117188 251.285156 364.625 197.214844 C 375.167969 162.695312 382.910156 140.398438 378.015625 123.09375 " fill-opacity="1" fill-rule="nonzero"/></g><g clip-path="url(#d630274988)"><path fill="#79a5f2" d="M 284.625 0 C 173.394531 0 83.304688 90.089844 83.304688 201.320312 C 83.304688 312.554688 173.394531 402.644531 284.625 402.644531 C 395.855469 402.644531 485.949219 312.554688 485.949219 201.320312 C 485.949219 90.089844 395.855469 0 284.625 0 Z M 284.625 362.378906 C 195.640625 362.378906 123.570312 290.308594 123.570312 201.320312 C 123.570312 112.335938 195.640625 40.265625 284.625 40.265625 C 373.609375 40.265625 445.683594 112.335938 445.683594 201.320312 C 445.683594 290.308594 373.609375 362.378906 284.625 362.378906 Z M 284.625 362.378906 " fill-opacity="1" fill-rule="nonzero"/></g><g clip-path="url(#0b71ef47e8)"><path fill="#e75a32" d="M 284.628906 -57.878906 C 141.109375 -57.878906 24.863281 58.363281 24.863281 201.882812 C 24.863281 345.402344 141.109375 461.648438 284.628906 461.648438 C 428.148438 461.648438 544.390625 345.402344 544.390625 201.882812 C 544.390625 58.363281 428.148438 -57.878906 284.628906 -57.878906 Z M 284.628906 409.695312 C 169.8125 409.695312 76.816406 316.699219 76.816406 201.882812 C 76.816406 87.066406 169.8125 -5.925781 284.628906 -5.925781 C 399.441406 -5.925781 492.4375 87.066406 492.4375 201.882812 C 492.4375 316.699219 399.441406 409.695312 284.628906 409.695312 Z M 284.628906 409.695312 " fill-opacity="1" fill-rule="nonzero"/></g><g fill="#178a43" fill-opacity="0.4"><g transform="translate(41.34561, 233.945891)"><g><path d="M 21.859375 20.5 C 21.804688 22.550781 21.117188 24.316406 19.796875 25.796875 C 18.472656 27.273438 16.820312 28.195312 14.84375 28.5625 C 11.988281 29.082031 9.539062 28.5 7.5 26.8125 C 5.46875 25.125 4.125 22.5 3.46875 18.9375 L 0.546875 3.015625 L 34.71875 -3.25 L 37.546875 12.125 C 38.179688 15.601562 37.878906 18.46875 36.640625 20.71875 C 35.410156 22.976562 33.429688 24.359375 30.703125 24.859375 C 28.691406 25.234375 26.921875 25.015625 25.390625 24.203125 C 23.867188 23.390625 22.691406 22.15625 21.859375 20.5 Z M 22.40625 7.625 L 23.40625 13.0625 C 23.65625 14.425781 24.148438 15.414062 24.890625 16.03125 C 25.628906 16.65625 26.585938 16.863281 27.765625 16.65625 C 28.921875 16.4375 29.738281 15.90625 30.21875 15.0625 C 30.707031 14.21875 30.828125 13.113281 30.578125 11.75 L 29.578125 6.3125 Z M 9.921875 16.234375 C 10.171875 17.628906 10.679688 18.648438 11.453125 19.296875 C 12.222656 19.953125 13.210938 20.171875 14.421875 19.953125 C 15.617188 19.734375 16.484375 19.160156 17.015625 18.234375 C 17.554688 17.304688 17.703125 16.144531 17.453125 14.75 L 16.34375 8.734375 L 8.796875 10.109375 Z M 9.921875 16.234375 "/></g></g></g><g fill="#178a43" fill-opacity="0.4"><g transform="translate(47.716514, 268.423831)"><g><path d="M 43.625 20.0625 L 10.765625 31.34375 L 8.015625 23.34375 L 21.53125 18.703125 L 17.265625 6.265625 L 3.75 10.90625 L 1 2.890625 L 33.859375 -8.390625 L 36.609375 -0.375 L 23.734375 4.046875 L 28 16.484375 L 40.875 12.0625 Z M 43.625 20.0625 "/></g></g></g><g fill="#178a43" fill-opacity="0.4"><g transform="translate(60.48124, 305.022276)"><g><path d="M 17 18.921875 L 10.921875 7.46875 L 4.53125 8.515625 L 0.375 0.703125 L 36.9375 -4.5 L 41.53125 4.15625 L 16.765625 31.546875 L 12.5625 23.640625 Z M 21.734375 13.953125 L 30.953125 4.171875 L 17.71875 6.390625 Z M 21.734375 13.953125 "/></g></g></g><g fill="#178a43" fill-opacity="0.4"><g transform="translate(79.033778, 339.20841)"><g><path d="M 12.375 16.703125 L 18.59375 3.09375 L 17.390625 1.46875 L 6.859375 9.265625 L 1.828125 2.453125 L 29.734375 -18.21875 L 38.1875 -6.796875 C 39.8125 -4.597656 40.8125 -2.441406 41.1875 -0.328125 C 41.570312 1.785156 41.378906 3.722656 40.609375 5.484375 C 39.835938 7.253906 38.632812 8.742188 37 9.953125 C 35.132812 11.328125 33.085938 12.03125 30.859375 12.0625 C 28.628906 12.101562 26.453125 11.328125 24.328125 9.734375 L 18.0625 24.375 Z M 22.203125 -2.09375 L 25.328125 2.109375 C 26.242188 3.359375 27.238281 4.066406 28.3125 4.234375 C 29.382812 4.410156 30.476562 4.082031 31.59375 3.25 C 32.644531 2.46875 33.242188 1.535156 33.390625 0.453125 C 33.546875 -0.617188 33.164062 -1.78125 32.25 -3.03125 L 29.125 -7.234375 Z M 22.203125 -2.09375 "/></g></g></g><g fill="#178a43" fill-opacity="0.4"><g transform="translate(99.727257, 366.728046)"><g><path d="M 44.453125 -4.09375 L 39.59375 0.625 L 33.1875 -5.96875 L 13.140625 13.515625 L 7.25 7.453125 L 27.296875 -12.03125 L 20.875 -18.640625 L 25.734375 -23.359375 Z M 44.453125 -4.09375 "/></g></g></g><g fill="#178a43" fill-opacity="0.4"><g transform="translate(121.471343, 388.489765)"><g><path d="M 31.265625 -19 L 8.78125 7.46875 L 2.328125 1.984375 L 24.8125 -24.484375 Z M 31.265625 -19 "/></g></g></g><g fill="#178a43" fill-opacity="0.4"><g transform="translate(133.639627, 399.347792)"><g><path d="M 46.71875 -10.09375 L 23.671875 2.296875 L 17.1875 11.765625 L 10.203125 7 L 16.6875 -2.46875 L 19.90625 -28.46875 L 27.828125 -23.046875 L 25.15625 -7.234375 L 38.890625 -15.46875 Z M 46.71875 -10.09375 "/></g></g></g><g fill="#178a43" fill-opacity="0.4"><g transform="translate(163.120231, 419.462145)"><g><path d="M 24.90625 5.1875 L 13.234375 -0.4375 L 8.6875 4.1875 L 0.71875 0.34375 L 27.109375 -25.484375 L 35.9375 -21.21875 L 32.171875 15.515625 L 24.109375 11.625 Z M 25.78125 -1.625 L 27.40625 -14.953125 L 18.0625 -5.34375 Z M 25.78125 -1.625 "/></g></g></g><g fill="#178a43" fill-opacity="0.4"><g transform="translate(197.744097, 435.32606)"><g/></g></g><g fill="#178a43" fill-opacity="0.4"><g transform="translate(208.859312, 439.765183)"><g><path d="M 34.5625 -15.25 C 34.039062 -13.3125 33.125 -11.648438 31.8125 -10.265625 C 30.5 -8.890625 28.785156 -7.953125 26.671875 -7.453125 C 24.566406 -6.953125 22.140625 -7.066406 19.390625 -7.796875 L 14.328125 -9.125 L 11.15625 2.9375 L 2.96875 0.78125 L 11.8125 -32.8125 L 25.0625 -29.328125 C 27.738281 -28.617188 29.878906 -27.554688 31.484375 -26.140625 C 33.085938 -24.734375 34.140625 -23.09375 34.640625 -21.21875 C 35.140625 -19.34375 35.113281 -17.351562 34.5625 -15.25 Z M 20.484375 -14.453125 C 22.046875 -14.046875 23.304688 -14.109375 24.265625 -14.640625 C 25.222656 -15.171875 25.878906 -16.101562 26.234375 -17.4375 C 26.578125 -18.78125 26.460938 -19.921875 25.890625 -20.859375 C 25.328125 -21.796875 24.265625 -22.46875 22.703125 -22.875 L 18.265625 -24.046875 L 16.046875 -15.625 Z M 20.484375 -14.453125 "/></g></g></g><g fill="#178a43" fill-opacity="0.4"><g transform="translate(241.11156, 448.37169)"><g><path d="M 19.34375 2.40625 C 16.101562 2.0625 13.207031 0.992188 10.65625 -0.796875 C 8.113281 -2.585938 6.1875 -4.925781 4.875 -7.8125 C 3.570312 -10.695312 3.097656 -13.828125 3.453125 -17.203125 C 3.816406 -20.578125 4.9375 -23.519531 6.8125 -26.03125 C 8.695312 -28.550781 11.070312 -30.421875 13.9375 -31.640625 C 16.800781 -32.859375 19.851562 -33.296875 23.09375 -32.953125 C 26.34375 -32.609375 29.238281 -31.539062 31.78125 -29.75 C 34.320312 -27.957031 36.234375 -25.632812 37.515625 -22.78125 C 38.796875 -19.925781 39.253906 -16.8125 38.890625 -13.4375 C 38.535156 -10.0625 37.421875 -7.097656 35.546875 -4.546875 C 33.679688 -2.003906 31.328125 -0.125 28.484375 1.09375 C 25.640625 2.3125 22.59375 2.75 19.34375 2.40625 Z M 20.15625 -5.265625 C 22.914062 -4.972656 25.21875 -5.65625 27.0625 -7.3125 C 28.914062 -8.96875 30.003906 -11.3125 30.328125 -14.34375 C 30.648438 -17.382812 30.078125 -19.898438 28.609375 -21.890625 C 27.148438 -23.890625 25.039062 -25.035156 22.28125 -25.328125 C 19.5 -25.628906 17.179688 -24.960938 15.328125 -23.328125 C 13.484375 -21.703125 12.398438 -19.351562 12.078125 -16.28125 C 11.753906 -13.21875 12.320312 -10.691406 13.78125 -8.703125 C 15.25 -6.710938 17.375 -5.566406 20.15625 -5.265625 Z M 20.15625 -5.265625 "/></g></g></g><g fill="#178a43" fill-opacity="0.4"><g transform="translate(282.280077, 452.25182)"><g><path d="M 28.421875 -24.859375 C 28.515625 -22.859375 28.140625 -21.003906 27.296875 -19.296875 C 26.453125 -17.585938 25.097656 -16.175781 23.234375 -15.0625 C 21.378906 -13.957031 19.03125 -13.34375 16.1875 -13.21875 L 10.953125 -12.984375 L 11.515625 -0.53125 L 3.0625 -0.140625 L 1.484375 -34.84375 L 15.171875 -35.46875 C 17.941406 -35.59375 20.300781 -35.21875 22.25 -34.34375 C 24.195312 -33.476562 25.6875 -32.222656 26.71875 -30.578125 C 27.757812 -28.941406 28.328125 -27.035156 28.421875 -24.859375 Z M 15.234375 -19.90625 C 16.847656 -19.976562 18.03125 -20.410156 18.78125 -21.203125 C 19.539062 -22.003906 19.890625 -23.09375 19.828125 -24.46875 C 19.765625 -25.851562 19.316406 -26.90625 18.484375 -27.625 C 17.660156 -28.351562 16.441406 -28.679688 14.828125 -28.609375 L 10.234375 -28.40625 L 10.640625 -19.703125 Z M 15.234375 -19.90625 "/></g></g></g><g fill="#178a43" fill-opacity="0.4"><g transform="translate(315.463082, 450.710371)"><g><path d="M 4.65625 -36.25 L 8.5625 -15.828125 C 8.945312 -13.785156 9.742188 -12.3125 10.953125 -11.40625 C 12.171875 -10.5 13.75 -10.234375 15.6875 -10.609375 C 17.632812 -10.972656 19.019531 -11.800781 19.84375 -13.09375 C 20.675781 -14.394531 20.898438 -16.066406 20.515625 -18.109375 L 16.609375 -38.53125 L 24.921875 -40.125 L 28.8125 -19.75 C 29.394531 -16.695312 29.238281 -13.992188 28.34375 -11.640625 C 27.445312 -9.296875 26.007812 -7.378906 24.03125 -5.890625 C 22.050781 -4.398438 19.710938 -3.398438 17.015625 -2.890625 C 14.328125 -2.378906 11.820312 -2.445312 9.5 -3.09375 C 7.175781 -3.75 5.195312 -5.015625 3.5625 -6.890625 C 1.9375 -8.773438 0.832031 -11.242188 0.25 -14.296875 L -3.640625 -34.671875 Z M 4.65625 -36.25 "/></g></g></g><g fill="#178a43" fill-opacity="0.4"><g transform="translate(351.642046, 443.311771)"><g><path d="M 8.9375 -9.78125 L 19.46875 -13.21875 L 21.5 -7.015625 L 2.90625 -0.953125 L -7.875 -33.96875 L 0.1875 -36.59375 Z M 8.9375 -9.78125 "/></g></g></g><g fill="#178a43" fill-opacity="0.4"><g transform="translate(376.211789, 435.584299)"><g><path d="M 19.609375 -16.203125 L 7.921875 -10.609375 L 8.703125 -4.15625 L 0.71875 -0.34375 L -2.9375 -37.109375 L 5.90625 -41.328125 L 32.21875 -15.40625 L 24.140625 -11.546875 Z M 14.859375 -21.140625 L 5.484375 -30.75 L 7.140625 -17.4375 Z M 14.859375 -21.140625 "/></g></g></g><g fill="#178a43" fill-opacity="0.4"><g transform="translate(411.158209, 418.502462)"><g><path d="M 17.203125 -11.65625 L 3.875 -18.453125 L 2.203125 -17.328125 L 9.546875 -6.46875 L 2.53125 -1.71875 L -16.9375 -30.484375 L -5.171875 -38.453125 C -2.898438 -39.984375 -0.703125 -40.890625 1.421875 -41.171875 C 3.554688 -41.460938 5.484375 -41.1875 7.203125 -40.34375 C 8.929688 -39.5 10.367188 -38.234375 11.515625 -36.546875 C 12.816406 -34.628906 13.4375 -32.554688 13.375 -30.328125 C 13.3125 -28.097656 12.441406 -25.957031 10.765625 -23.90625 L 25.109375 -17 Z M -1.15625 -22.28125 L 3.171875 -25.21875 C 4.460938 -26.082031 5.210938 -27.046875 5.421875 -28.109375 C 5.640625 -29.179688 5.359375 -30.289062 4.578125 -31.4375 C 3.847656 -32.519531 2.945312 -33.15625 1.875 -33.34375 C 0.8125 -33.539062 -0.363281 -33.207031 -1.65625 -32.34375 L -5.984375 -29.40625 Z M -1.15625 -22.28125 "/></g></g></g><g fill="#178a43" fill-opacity="0.4"><g transform="translate(438.766129, 399.109892)"><g/></g></g><g fill="#178a43" fill-opacity="0.4"><g transform="translate(448.25525, 391.815226)"><g><path d="M 4.5 -37.484375 C 5.914062 -36.054688 6.878906 -34.425781 7.390625 -32.59375 C 7.898438 -30.757812 7.832031 -28.804688 7.1875 -26.734375 C 6.550781 -24.671875 5.21875 -22.640625 3.1875 -20.640625 L -0.53125 -16.96875 L 8.21875 -8.09375 L 2.1875 -2.15625 L -22.1875 -26.90625 L -12.4375 -36.515625 C -10.457031 -38.460938 -8.453125 -39.757812 -6.421875 -40.40625 C -4.390625 -41.0625 -2.441406 -41.125 -0.578125 -40.59375 C 1.285156 -40.070312 2.976562 -39.035156 4.5 -37.484375 Z M -1.984375 -24.984375 C -0.828125 -26.117188 -0.234375 -27.234375 -0.203125 -28.328125 C -0.171875 -29.429688 -0.644531 -30.472656 -1.625 -31.453125 C -2.59375 -32.441406 -3.625 -32.925781 -4.71875 -32.90625 C -5.8125 -32.894531 -6.9375 -32.320312 -8.09375 -31.1875 L -11.359375 -27.96875 L -5.25 -21.765625 Z M -1.984375 -24.984375 "/></g></g></g><g fill="#178a43" fill-opacity="0.4"><g transform="translate(471.98361, 368.477029)"><g><path d="M 9.96875 -23.40625 L 2.15625 -13.0625 L 5.8125 -7.6875 L 0.484375 -0.640625 L -19.671875 -31.578125 L -13.765625 -39.40625 L 21.515625 -28.515625 L 16.125 -21.359375 Z M 3.46875 -25.59375 L -9.28125 -29.8125 L -1.6875 -18.765625 Z M 3.46875 -25.59375 "/></g></g></g><g fill="#178a43" fill-opacity="0.4"><g transform="translate(495.148935, 337.231202)"><g><path d="M 9.90625 -18.265625 L -5.046875 -18.15625 L -6.015625 -16.390625 L 5.5 -10.140625 L 1.46875 -2.6875 L -29.0625 -19.265625 L -22.296875 -31.75 C -20.984375 -34.15625 -19.445312 -35.972656 -17.6875 -37.203125 C -15.925781 -38.441406 -14.082031 -39.082031 -12.15625 -39.125 C -10.238281 -39.175781 -8.382812 -38.71875 -6.59375 -37.75 C -4.550781 -36.644531 -3.046875 -35.085938 -2.078125 -33.078125 C -1.109375 -31.066406 -0.894531 -28.765625 -1.4375 -26.171875 L 14.46875 -26.65625 Z M -11.28125 -19.25 L -8.78125 -23.84375 C -8.039062 -25.207031 -7.816406 -26.410156 -8.109375 -27.453125 C -8.410156 -28.503906 -9.171875 -29.359375 -10.390625 -30.015625 C -11.546875 -30.640625 -12.640625 -30.789062 -13.671875 -30.46875 C -14.710938 -30.15625 -15.601562 -29.316406 -16.34375 -27.953125 L -18.84375 -23.359375 Z M -11.28125 -19.25 "/></g></g></g><g fill="#178a43" fill-opacity="0.4"><g transform="translate(511.356201, 306.851899)"><g><path d="M -22.484375 -38.578125 L -16.140625 -36.15625 L -19.421875 -27.546875 L 6.703125 -17.609375 L 3.703125 -9.703125 L -22.421875 -19.640625 L -25.703125 -11.046875 L -32.046875 -13.46875 Z M -22.484375 -38.578125 "/></g></g></g><g fill="#178a43" fill-opacity="0.4"><g transform="translate(522.535444, 277.443494)"><g><path d="M -26.40625 -39.859375 L -6.484375 -22.875 L 4.703125 -20.28125 L 2.796875 -12.046875 L -8.390625 -14.640625 L -33.75 -8.1875 L -31.578125 -17.546875 L -15.90625 -20.796875 L -28.546875 -30.59375 Z M -26.40625 -39.859375 "/></g></g></g><g fill="#178a43" fill-opacity="0.4"><g transform="translate(529.785915, 243.497167)"><g/></g></g><g fill="#ffffff" fill-opacity="1"><g transform="translate(39.159236, 231.759524)"><g><path d="M 21.859375 20.5 C 21.804688 22.550781 21.117188 24.316406 19.796875 25.796875 C 18.472656 27.273438 16.820312 28.195312 14.84375 28.5625 C 11.988281 29.082031 9.539062 28.5 7.5 26.8125 C 5.46875 25.125 4.125 22.5 3.46875 18.9375 L 0.546875 3.015625 L 34.71875 -3.25 L 37.546875 12.125 C 38.179688 15.601562 37.878906 18.46875 36.640625 20.71875 C 35.410156 22.976562 33.429688 24.359375 30.703125 24.859375 C 28.691406 25.234375 26.921875 25.015625 25.390625 24.203125 C 23.867188 23.390625 22.691406 22.15625 21.859375 20.5 Z M 22.40625 7.625 L 23.40625 13.0625 C 23.65625 14.425781 24.148438 15.414062 24.890625 16.03125 C 25.628906 16.65625 26.585938 16.863281 27.765625 16.65625 C 28.921875 16.4375 29.738281 15.90625 30.21875 15.0625 C 30.707031 14.21875 30.828125 13.113281 30.578125 11.75 L 29.578125 6.3125 Z M 9.921875 16.234375 C 10.171875 17.628906 10.679688 18.648438 11.453125 19.296875 C 12.222656 19.953125 13.210938 20.171875 14.421875 19.953125 C 15.617188 19.734375 16.484375 19.160156 17.015625 18.234375 C 17.554688 17.304688 17.703125 16.144531 17.453125 14.75 L 16.34375 8.734375 L 8.796875 10.109375 Z M 9.921875 16.234375 "/></g></g></g><g fill="#ffffff" fill-opacity="1"><g transform="translate(45.530141, 266.237465)"><g><path d="M 43.625 20.0625 L 10.765625 31.34375 L 8.015625 23.34375 L 21.53125 18.703125 L 17.265625 6.265625 L 3.75 10.90625 L 1 2.890625 L 33.859375 -8.390625 L 36.609375 -0.375 L 23.734375 4.046875 L 28 16.484375 L 40.875 12.0625 Z M 43.625 20.0625 "/></g></g></g><g fill="#ffffff" fill-opacity="1"><g transform="translate(58.294864, 302.835881)"><g><path d="M 17 18.921875 L 10.921875 7.46875 L 4.53125 8.515625 L 0.375 0.703125 L 36.9375 -4.5 L 41.53125 4.15625 L 16.765625 31.546875 L 12.5625 23.640625 Z M 21.734375 13.953125 L 30.953125 4.171875 L 17.71875 6.390625 Z M 21.734375 13.953125 "/></g></g></g><g fill="#ffffff" fill-opacity="1"><g transform="translate(76.847409, 337.022044)"><g><path d="M 12.375 16.703125 L 18.59375 3.09375 L 17.390625 1.46875 L 6.859375 9.265625 L 1.828125 2.453125 L 29.734375 -18.21875 L 38.1875 -6.796875 C 39.8125 -4.597656 40.8125 -2.441406 41.1875 -0.328125 C 41.570312 1.785156 41.378906 3.722656 40.609375 5.484375 C 39.835938 7.253906 38.632812 8.742188 37 9.953125 C 35.132812 11.328125 33.085938 12.03125 30.859375 12.0625 C 28.628906 12.101562 26.453125 11.328125 24.328125 9.734375 L 18.0625 24.375 Z M 22.203125 -2.09375 L 25.328125 2.109375 C 26.242188 3.359375 27.238281 4.066406 28.3125 4.234375 C 29.382812 4.410156 30.476562 4.082031 31.59375 3.25 C 32.644531 2.46875 33.242188 1.535156 33.390625 0.453125 C 33.546875 -0.617188 33.164062 -1.78125 32.25 -3.03125 L 29.125 -7.234375 Z M 22.203125 -2.09375 "/></g></g></g><g fill="#ffffff" fill-opacity="1"><g transform="translate(97.540874, 364.54168)"><g><path d="M 44.453125 -4.09375 L 39.59375 0.625 L 33.1875 -5.96875 L 13.140625 13.515625 L 7.25 7.453125 L 27.296875 -12.03125 L 20.875 -18.640625 L 25.734375 -23.359375 Z M 44.453125 -4.09375 "/></g></g></g><g fill="#ffffff" fill-opacity="1"><g transform="translate(119.284975, 386.30337)"><g><path d="M 31.265625 -19 L 8.78125 7.46875 L 2.328125 1.984375 L 24.8125 -24.484375 Z M 31.265625 -19 "/></g></g></g><g fill="#ffffff" fill-opacity="1"><g transform="translate(131.453258, 397.161426)"><g><path d="M 46.71875 -10.09375 L 23.671875 2.296875 L 17.1875 11.765625 L 10.203125 7 L 16.6875 -2.46875 L 19.90625 -28.46875 L 27.828125 -23.046875 L 25.15625 -7.234375 L 38.890625 -15.46875 Z M 46.71875 -10.09375 "/></g></g></g><g fill="#ffffff" fill-opacity="1"><g transform="translate(160.933865, 417.275777)"><g><path d="M 24.90625 5.1875 L 13.234375 -0.4375 L 8.6875 4.1875 L 0.71875 0.34375 L 27.109375 -25.484375 L 35.9375 -21.21875 L 32.171875 15.515625 L 24.109375 11.625 Z M 25.78125 -1.625 L 27.40625 -14.953125 L 18.0625 -5.34375 Z M 25.78125 -1.625 "/></g></g></g><g fill="#ffffff" fill-opacity="1"><g transform="translate(195.557714, 433.139691)"><g/></g></g><g fill="#ffffff" fill-opacity="1"><g transform="translate(206.672932, 437.578814)"><g><path d="M 34.5625 -15.25 C 34.039062 -13.3125 33.125 -11.648438 31.8125 -10.265625 C 30.5 -8.890625 28.785156 -7.953125 26.671875 -7.453125 C 24.566406 -6.953125 22.140625 -7.066406 19.390625 -7.796875 L 14.328125 -9.125 L 11.15625 2.9375 L 2.96875 0.78125 L 11.8125 -32.8125 L 25.0625 -29.328125 C 27.738281 -28.617188 29.878906 -27.554688 31.484375 -26.140625 C 33.085938 -24.734375 34.140625 -23.09375 34.640625 -21.21875 C 35.140625 -19.34375 35.113281 -17.351562 34.5625 -15.25 Z M 20.484375 -14.453125 C 22.046875 -14.046875 23.304688 -14.109375 24.265625 -14.640625 C 25.222656 -15.171875 25.878906 -16.101562 26.234375 -17.4375 C 26.578125 -18.78125 26.460938 -19.921875 25.890625 -20.859375 C 25.328125 -21.796875 24.265625 -22.46875 22.703125 -22.875 L 18.265625 -24.046875 L 16.046875 -15.625 Z M 20.484375 -14.453125 "/></g></g></g><g fill="#ffffff" fill-opacity="1"><g transform="translate(238.925194, 446.185317)"><g><path d="M 19.34375 2.40625 C 16.101562 2.0625 13.207031 0.992188 10.65625 -0.796875 C 8.113281 -2.585938 6.1875 -4.925781 4.875 -7.8125 C 3.570312 -10.695312 3.097656 -13.828125 3.453125 -17.203125 C 3.816406 -20.578125 4.9375 -23.519531 6.8125 -26.03125 C 8.695312 -28.550781 11.070312 -30.421875 13.9375 -31.640625 C 16.800781 -32.859375 19.851562 -33.296875 23.09375 -32.953125 C 26.34375 -32.609375 29.238281 -31.539062 31.78125 -29.75 C 34.320312 -27.957031 36.234375 -25.632812 37.515625 -22.78125 C 38.796875 -19.925781 39.253906 -16.8125 38.890625 -13.4375 C 38.535156 -10.0625 37.421875 -7.097656 35.546875 -4.546875 C 33.679688 -2.003906 31.328125 -0.125 28.484375 1.09375 C 25.640625 2.3125 22.59375 2.75 19.34375 2.40625 Z M 20.15625 -5.265625 C 22.914062 -4.972656 25.21875 -5.65625 27.0625 -7.3125 C 28.914062 -8.96875 30.003906 -11.3125 30.328125 -14.34375 C 30.648438 -17.382812 30.078125 -19.898438 28.609375 -21.890625 C 27.148438 -23.890625 25.039062 -25.035156 22.28125 -25.328125 C 19.5 -25.628906 17.179688 -24.960938 15.328125 -23.328125 C 13.484375 -21.703125 12.398438 -19.351562 12.078125 -16.28125 C 11.753906 -13.21875 12.320312 -10.691406 13.78125 -8.703125 C 15.25 -6.710938 17.375 -5.566406 20.15625 -5.265625 Z M 20.15625 -5.265625 "/></g></g></g><g fill="#ffffff" fill-opacity="1"><g transform="translate(280.093711, 450.065468)"><g><path d="M 28.421875 -24.859375 C 28.515625 -22.859375 28.140625 -21.003906 27.296875 -19.296875 C 26.453125 -17.585938 25.097656 -16.175781 23.234375 -15.0625 C 21.378906 -13.957031 19.03125 -13.34375 16.1875 -13.21875 L 10.953125 -12.984375 L 11.515625 -0.53125 L 3.0625 -0.140625 L 1.484375 -34.84375 L 15.171875 -35.46875 C 17.941406 -35.59375 20.300781 -35.21875 22.25 -34.34375 C 24.195312 -33.476562 25.6875 -32.222656 26.71875 -30.578125 C 27.757812 -28.941406 28.328125 -27.035156 28.421875 -24.859375 Z M 15.234375 -19.90625 C 16.847656 -19.976562 18.03125 -20.410156 18.78125 -21.203125 C 19.539062 -22.003906 19.890625 -23.09375 19.828125 -24.46875 C 19.765625 -25.851562 19.316406 -26.90625 18.484375 -27.625 C 17.660156 -28.351562 16.441406 -28.679688 14.828125 -28.609375 L 10.234375 -28.40625 L 10.640625 -19.703125 Z M 15.234375 -19.90625 "/></g></g></g><g fill="#ffffff" fill-opacity="1"><g transform="translate(313.276716, 448.524019)"><g><path d="M 4.65625 -36.25 L 8.5625 -15.828125 C 8.945312 -13.785156 9.742188 -12.3125 10.953125 -11.40625 C 12.171875 -10.5 13.75 -10.234375 15.6875 -10.609375 C 17.632812 -10.972656 19.019531 -11.800781 19.84375 -13.09375 C 20.675781 -14.394531 20.898438 -16.066406 20.515625 -18.109375 L 16.609375 -38.53125 L 24.921875 -40.125 L 28.8125 -19.75 C 29.394531 -16.695312 29.238281 -13.992188 28.34375 -11.640625 C 27.445312 -9.296875 26.007812 -7.378906 24.03125 -5.890625 C 22.050781 -4.398438 19.710938 -3.398438 17.015625 -2.890625 C 14.328125 -2.378906 11.820312 -2.445312 9.5 -3.09375 C 7.175781 -3.75 5.195312 -5.015625 3.5625 -6.890625 C 1.9375 -8.773438 0.832031 -11.242188 0.25 -14.296875 L -3.640625 -34.671875 Z M 4.65625 -36.25 "/></g></g></g><g fill="#ffffff" fill-opacity="1"><g transform="translate(349.455679, 441.125405)"><g><path d="M 8.9375 -9.78125 L 19.46875 -13.21875 L 21.5 -7.015625 L 2.90625 -0.953125 L -7.875 -33.96875 L 0.1875 -36.59375 Z M 8.9375 -9.78125 "/></g></g></g><g fill="#ffffff" fill-opacity="1"><g transform="translate(374.025423, 433.397904)"><g><path d="M 19.609375 -16.203125 L 7.921875 -10.609375 L 8.703125 -4.15625 L 0.71875 -0.34375 L -2.9375 -37.109375 L 5.90625 -41.328125 L 32.21875 -15.40625 L 24.140625 -11.546875 Z M 14.859375 -21.140625 L 5.484375 -30.75 L 7.140625 -17.4375 Z M 14.859375 -21.140625 "/></g></g></g><g fill="#ffffff" fill-opacity="1"><g transform="translate(408.971842, 416.316094)"><g><path d="M 17.203125 -11.65625 L 3.875 -18.453125 L 2.203125 -17.328125 L 9.546875 -6.46875 L 2.53125 -1.71875 L -16.9375 -30.484375 L -5.171875 -38.453125 C -2.898438 -39.984375 -0.703125 -40.890625 1.421875 -41.171875 C 3.554688 -41.460938 5.484375 -41.1875 7.203125 -40.34375 C 8.929688 -39.5 10.367188 -38.234375 11.515625 -36.546875 C 12.816406 -34.628906 13.4375 -32.554688 13.375 -30.328125 C 13.3125 -28.097656 12.441406 -25.957031 10.765625 -23.90625 L 25.109375 -17 Z M -1.15625 -22.28125 L 3.171875 -25.21875 C 4.460938 -26.082031 5.210938 -27.046875 5.421875 -28.109375 C 5.640625 -29.179688 5.359375 -30.289062 4.578125 -31.4375 C 3.847656 -32.519531 2.945312 -33.15625 1.875 -33.34375 C 0.8125 -33.539062 -0.363281 -33.207031 -1.65625 -32.34375 L -5.984375 -29.40625 Z M -1.15625 -22.28125 "/></g></g></g><g fill="#ffffff" fill-opacity="1"><g transform="translate(436.579753, 396.923523)"><g/></g></g><g fill="#ffffff" fill-opacity="1"><g transform="translate(446.068898, 389.62886)"><g><path d="M 4.5 -37.484375 C 5.914062 -36.054688 6.878906 -34.425781 7.390625 -32.59375 C 7.898438 -30.757812 7.832031 -28.804688 7.1875 -26.734375 C 6.550781 -24.671875 5.21875 -22.640625 3.1875 -20.640625 L -0.53125 -16.96875 L 8.21875 -8.09375 L 2.1875 -2.15625 L -22.1875 -26.90625 L -12.4375 -36.515625 C -10.457031 -38.460938 -8.453125 -39.757812 -6.421875 -40.40625 C -4.390625 -41.0625 -2.441406 -41.125 -0.578125 -40.59375 C 1.285156 -40.070312 2.976562 -39.035156 4.5 -37.484375 Z M -1.984375 -24.984375 C -0.828125 -26.117188 -0.234375 -27.234375 -0.203125 -28.328125 C -0.171875 -29.429688 -0.644531 -30.472656 -1.625 -31.453125 C -2.59375 -32.441406 -3.625 -32.925781 -4.71875 -32.90625 C -5.8125 -32.894531 -6.9375 -32.320312 -8.09375 -31.1875 L -11.359375 -27.96875 L -5.25 -21.765625 Z M -1.984375 -24.984375 "/></g></g></g><g fill="#ffffff" fill-opacity="1"><g transform="translate(469.797258, 366.290663)"><g><path d="M 9.96875 -23.40625 L 2.15625 -13.0625 L 5.8125 -7.6875 L 0.484375 -0.640625 L -19.671875 -31.578125 L -13.765625 -39.40625 L 21.515625 -28.515625 L 16.125 -21.359375 Z M 3.46875 -25.59375 L -9.28125 -29.8125 L -1.6875 -18.765625 Z M 3.46875 -25.59375 "/></g></g></g><g fill="#ffffff" fill-opacity="1"><g transform="translate(492.962559, 335.044836)"><g><path d="M 9.90625 -18.265625 L -5.046875 -18.15625 L -6.015625 -16.390625 L 5.5 -10.140625 L 1.46875 -2.6875 L -29.0625 -19.265625 L -22.296875 -31.75 C -20.984375 -34.15625 -19.445312 -35.972656 -17.6875 -37.203125 C -15.925781 -38.441406 -14.082031 -39.082031 -12.15625 -39.125 C -10.238281 -39.175781 -8.382812 -38.71875 -6.59375 -37.75 C -4.550781 -36.644531 -3.046875 -35.085938 -2.078125 -33.078125 C -1.109375 -31.066406 -0.894531 -28.765625 -1.4375 -26.171875 L 14.46875 -26.65625 Z M -11.28125 -19.25 L -8.78125 -23.84375 C -8.039062 -25.207031 -7.816406 -26.410156 -8.109375 -27.453125 C -8.410156 -28.503906 -9.171875 -29.359375 -10.390625 -30.015625 C -11.546875 -30.640625 -12.640625 -30.789062 -13.671875 -30.46875 C -14.710938 -30.15625 -15.601562 -29.316406 -16.34375 -27.953125 L -18.84375 -23.359375 Z M -11.28125 -19.25 "/></g></g></g><g fill="#ffffff" fill-opacity="1"><g transform="translate(509.169826, 304.66553)"><g><path d="M -22.484375 -38.578125 L -16.140625 -36.15625 L -19.421875 -27.546875 L 6.703125 -17.609375 L 3.703125 -9.703125 L -22.421875 -19.640625 L -25.703125 -11.046875 L -32.046875 -13.46875 Z M -22.484375 -38.578125 "/></g></g></g><g fill="#ffffff" fill-opacity="1"><g transform="translate(520.349068, 275.257128)"><g><path d="M -26.40625 -39.859375 L -6.484375 -22.875 L 4.703125 -20.28125 L 2.796875 -12.046875 L -8.390625 -14.640625 L -33.75 -8.1875 L -31.578125 -17.546875 L -15.90625 -20.796875 L -28.546875 -30.59375 Z M -26.40625 -39.859375 "/></g></g></g><g fill="#ffffff" fill-opacity="1"><g transform="translate(527.599539, 241.310798)"><g/></g></g></svg>